<svg width="47" height="44" viewBox="0 0 47 44" fill="none" xmlns="http://www.w3.org/2000/svg">
<path d="M43.5169 14.0817C42.9109 13.07 41.9553 11.7408 41.1861 10.8468C40.1373 9.72924 38.6805 8.55291 37.4685 7.61184C35.4408 6.22377 32.8536 5.07097 30.5461 4.22401C30.0916 3.97698 29.1943 3.17707 28.798 2.82417L27.6326 1.94192C27.1432 1.68313 26.0477 1.07143 25.5233 0.906748L23.9966 0.553848H22.2485C21.7707 0.589138 20.8151 0.871458 20.3606 1.00085C19.6847 1.34199 18.3212 2.08308 17.7385 2.54185C17.3189 2.8477 16.5614 3.56526 16.2118 3.94169L15.1863 4.45927C6.60898 7.1766 0.0128726 14.4934 0.176027 23.8688C0.420759 29.8916 3.27597 34.5969 7.821 38.3494C12.4826 41.9019 18.5309 43.69 24.3579 43.4194C28.6465 43.2194 33.1915 41.7725 36.8159 39.4434C38.0512 38.62 39.473 37.4672 40.5335 36.432C41.0463 35.8674 42.0019 34.6675 42.503 34.0793C44.2628 31.8561 45.3932 28.6917 45.9293 25.9156C46.4421 21.916 45.6146 17.5283 43.5169 14.0817ZM4.2549 30.0327L4.11505 30.7621L3.89363 30.8326L3.0895 28.9976L2.50681 27.2331L2.21546 25.8332L2.07561 24.3628V22.316L2.29704 20.4103L2.80981 18.3518L3.61393 16.4461L4.33647 15.0463L5.21052 13.7288L5.86313 12.9171L6.66726 11.9643L7.6928 10.9291L8.49692 10.2704L9.37097 9.54103L10.4548 8.78818L11.9115 7.90593L13.2983 7.24718H13.4382L13.3683 7.61184L12.7156 8.56467L11.6901 10.3292L10.816 11.9525L9.65065 14.3758L8.92812 16.0697L8.05407 18.2812L7.33153 20.1868L6.16614 23.6453L5.65336 25.1863L5.00075 27.4683L4.2549 30.0327ZM25.1037 41.502C24.1947 40.5492 23.2624 39.067 22.3301 38.1141L22.4 37.6671L23.1226 36.8555L23.4139 36.7849L24.0665 37.1496L24.5793 37.0084L24.9406 36.6437L25.0105 36.0556L24.5677 35.3262V34.8792C24.7075 34.8087 24.9289 34.2793 25.0105 34.1499L24.9406 33.6323C24.859 33.5147 24.4744 33.2677 24.3579 33.1853H23.8451L23.4023 33.4794L22.9594 33.3382L22.3068 32.5266L22.3767 32.0796L22.6681 31.9384V31.7972L23.1109 31.2797H23.3323L23.8451 31.5737C24.0083 31.5737 24.5094 31.5973 24.6492 31.5032L24.9406 31.1385L25.0105 30.6209L24.8707 30.1739L24.5793 29.8092L24.5094 29.4446L24.8707 28.9976L25.0105 28.3388L24.8707 27.9742L24.4278 27.6095H23.915C23.7402 27.7271 23.379 27.9153 23.1925 27.9742C23.041 27.833 22.5399 27.2566 22.3884 27.0919L22.3185 26.7272C22.4583 26.5273 22.9594 25.9038 23.1226 25.6921H23.4839L23.9267 25.9862L24.288 26.0567L24.7308 25.8332L25.0222 25.3862L24.9522 24.7275L24.6609 24.3628L24.591 23.8452L24.9522 23.2571L25.0222 22.6689C24.9522 22.516 24.6376 22.1984 24.5094 22.0807L23.9966 22.0102C23.8218 22.116 23.4023 22.3631 23.1925 22.3748L22.3884 21.4926L22.3185 21.1279C22.4583 20.9162 23.0294 20.2339 23.1925 20.0222L23.5538 19.9516L23.8451 20.0927L24.288 20.1633L24.7308 19.9398L25.0222 19.4928L24.9522 18.9046L24.7308 18.6106L24.6609 18.2459L25.0222 17.5871V17.0696C24.9522 16.9166 24.6376 16.599 24.5094 16.4814H23.9966L23.4139 16.7049C23.3207 16.7519 22.4583 15.6697 22.3884 15.5991L22.3185 15.3051C22.3767 15.1639 23.2974 14.0581 23.4139 13.9052L24.1365 14.0464L24.4977 13.9758L24.7891 13.7523L25.0105 13.3053L24.9406 12.7877L24.8007 12.6465L24.7308 12.2819L24.9522 11.8349L25.0222 11.1761L24.5793 10.6585L23.9267 10.588L23.4139 10.7291C23.1925 10.4115 22.6797 9.81159 22.3884 9.55279L22.3185 9.10579C22.8895 8.4588 23.7169 7.34129 24.288 6.68254L24.8707 5.87087L25.0105 5.35328L24.9406 4.98862L24.6492 4.69454L24.2064 4.47104L23.6936 4.54162C22.8662 5.49445 21.8523 6.65901 21.1414 7.70595L20.8501 7.63537L20.4072 7.34129C19.7896 7.35305 19.7779 7.23542 19.3817 7.78829V8.51762C19.4982 8.69407 19.8245 9.17637 19.8245 9.39987L19.4632 9.84688L19.3234 10.3645L19.3933 10.7291L19.9061 11.1761L20.4189 11.2467L20.7801 11.0232L21.1414 10.9526C21.3512 11.1291 21.8989 11.8231 22.0854 12.0584L22.1553 12.576C21.9339 12.823 21.4328 13.3876 21.2813 13.6817L20.92 13.7523L20.4072 13.4582H19.8944L19.3817 13.9052L19.3117 14.564C19.4283 14.7522 19.7429 15.2462 19.8245 15.4462C19.6497 15.6227 19.405 16.0226 19.3117 16.2579V16.7755C19.4283 16.9519 19.8595 17.199 20.0343 17.2931H20.5471L20.7685 17.1519L21.1298 17.0813C21.3745 17.2813 21.8173 17.8459 22.0038 18.1165L22.0737 18.4106C21.8756 18.7047 21.4211 19.3046 21.1997 19.5869L20.9083 19.6575L20.4655 19.2928C19.8245 19.2575 19.7313 19.3516 19.3001 19.8104V20.3986L19.7429 21.0573L19.8129 21.422C19.6614 21.5396 19.405 21.916 19.3001 22.0807V22.6689L19.8828 23.1159L20.3956 23.1865C20.5471 23.0924 20.885 22.8924 21.0482 22.8218C21.223 22.9395 21.8523 23.8805 21.9921 24.0687C21.8406 24.2687 21.3395 24.9627 21.188 25.1745L20.9666 25.2451L20.4538 24.8804H19.9411L19.4283 25.1745L19.2069 25.5392L19.2768 26.0567L19.7196 26.6449L19.7896 26.939L19.2768 27.4566L19.2069 27.9036L19.3467 28.3506L19.7896 28.7152L20.3723 28.7858L21.0948 28.4917C21.3512 28.7505 21.829 29.3269 21.9688 29.6681L21.3162 30.5503L20.9549 30.7738L20.4422 30.4092H19.9294C19.7779 30.4797 19.4632 30.7974 19.3467 30.9268V31.6561C19.4516 31.8325 19.708 32.256 19.708 32.4677L19.4166 32.9148L19.2768 33.6441L19.4982 34.0087L19.8595 34.2322H20.5121C20.652 34.1734 21.0132 34.1029 21.1647 34.0911C21.3046 34.2793 21.9106 35.0439 21.9688 35.2674L21.2463 36.2203L20.8035 36.2908L20.5121 36.0673L19.9993 35.9967L19.6381 36.1379L19.3467 36.5026L19.2768 37.3848H19.4166L19.6381 37.6083L19.7779 37.973L19.3351 38.6317L19.2651 39.2199L19.405 39.514L19.9877 39.8786H20.4189C20.582 39.7728 20.8734 39.6081 21.0715 39.5846C21.4561 40.1374 22.2019 40.9021 22.5282 41.4902C18.4494 41.549 14.1025 40.208 10.6529 38.0318C8.63677 36.8555 6.79545 35.0792 5.33871 33.2559C5.40863 31.6678 6.57403 28.3506 6.94695 26.7861C7.90257 23.5982 9.27773 19.6222 10.583 16.5637C12.2495 12.7289 14.2889 8.61173 17.1325 5.52973C18.5309 4.15343 20.3373 2.57714 22.3767 2.44774H22.3884H23.7752L24.4977 2.5889L25.6631 3.03591L26.8285 3.69466L27.7725 4.42398C28.0289 4.69454 28.5766 5.21213 28.868 5.45916V5.60032H29.0078C31.4318 8.27059 33.3314 11.7996 34.8347 15.0816C37.3287 20.6809 39.4963 27.0801 40.7316 33.0912C37.2471 38.1141 31.0938 40.9726 25.1037 41.502ZM44.1695 24.9627L43.9481 26.3626L43.4353 28.1977L42.7128 30.1033L42.4215 30.8326H42.2L41.6873 29.1387L40.9647 26.4214L40.3121 24.2922L39.438 21.4926L38.3426 18.5517L37.5385 16.5637L36.3032 13.6935L35.2077 11.482L34.4851 10.1645L33.8325 9.05873L32.8886 7.51774L32.8186 7.15307L33.984 7.74124L35.3708 8.47057L36.1749 9.05873L37.4103 9.94098L38.3542 10.7527L39.2982 11.6349L40.2422 12.6701L41.1861 13.917L42.0602 15.3168L42.6429 16.4932L43.2256 17.893L43.8083 19.7986L44.0297 20.8338L44.1695 22.3748V24.9627Z" fill="white"/>
</svg>
