<svg width="24" height="18" viewBox="0 0 24 18" fill="none" xmlns="http://www.w3.org/2000/svg">
<path d="M6 17.4545C4.34182 17.4545 2.92727 16.8836 1.75636 15.7418C0.585454 14.5927 0 13.1927 0 11.5418C0 10.1236 0.425455 8.85818 1.27636 7.74545C2.13455 6.63273 3.25455 5.92364 4.63636 5.61818C5.09455 3.94545 6.00364 2.59273 7.36364 1.56C8.73091 0.52 10.2764 0 12 0C14.1309 0 15.9345 0.741818 17.4109 2.22545C18.8945 3.70182 19.6364 5.50545 19.6364 7.63636C20.8945 7.78182 21.9345 8.32727 22.7564 9.27273C23.5855 10.2036 24 11.2945 24 12.5455C24 13.9127 23.5236 15.0727 22.5709 16.0255C21.6182 16.9782 20.4582 17.4545 19.0909 17.4545M6 15.2727H19.0909C19.8545 15.2727 20.4982 15.0073 21.0218 14.4764C21.5527 13.9527 21.8182 13.3091 21.8182 12.5455C21.8182 11.7818 21.5527 11.1382 21.0218 10.6145C20.4982 10.0836 19.8545 9.81818 19.0909 9.81818H17.4545V7.63636C17.4545 6.13091 16.9236 4.84364 15.8618 3.77455C14.8 2.71273 13.5127 2.18182 12 2.18182C10.4945 2.18182 9.20727 2.71273 8.13818 3.77455C7.07636 4.84364 6.54545 6.13091 6.54545 7.63636H6C4.94545 7.63636 4.04727 8.01091 3.30545 8.76C2.55636 9.50182 2.18182 10.4 2.18182 11.4545C2.18182 12.5091 2.55636 13.4182 3.30545 14.1818C4.04727 14.9091 4.94545 15.2727 6 15.2727Z" fill="#F5FFF8"/>
</svg>
